<mxfile host="app.diagrams.net" modified="2024-01-16T07:26:44.320Z" agent="Mozilla/5.0 (Windows NT 10.0; Win64; x64) AppleWebKit/537.36 (KHTML, like Gecko) Chrome/120.0.0.0 Safari/537.36" version="22.1.18" etag="9hsarjTfXeLO6XLMC4T-" type="github">
  <diagram name="Page-1" id="Dam2had-F4Kqc3qLwCSw">
    <mxGraphModel>
      <root>
        <mxCell id="0" />
        <mxCell id="1" parent="0" />
      </root>
    </mxGraphModel>
  </diagram>
</mxfile>
